<?xml version="1.0" standalone="no"?>
<!DOCTYPE svg PUBLIC "-//W3C//DTD SVG 20010904//EN"
 "http://www.w3.org/TR/2001/REC-SVG-20010904/DTD/svg10.dtd">
<svg version="1.0" xmlns="http://www.w3.org/2000/svg"
 width="500.000000pt" height="500.000000pt" viewBox="0 0 500.000000 500.000000"
 preserveAspectRatio="xMidYMid meet">

<g transform="translate(0.000000,500.000000) scale(0.100000,-0.100000)"
fill="#000000" stroke="none">
<path d="M992 4509 c7 -18 1436 -2190 1452 -2207 10 -10 22 13 59 115 26 70
143 393 262 717 118 324 214 590 212 592 -1 1 -1854 744 -1976 792 -10 4 -13
1 -9 -9z"/>
<path d="M4020 3555 c-256 -227 -469 -420 -474 -427 -5 -9 77 -152 261 -453
332 -542 326 -532 329 -520 2 6 80 410 174 900 94 490 173 896 175 903 2 6 3
12 2 12 -1 0 -211 -187 -467 -415z"/>
<path d="M4536 3913 c-12 -58 -56 -331 -56 -347 0 -11 79 -55 251 -142 138
-69 252 -124 254 -122 2 3 -424 621 -437 633 -3 4 -9 -6 -12 -22z"/>
<path d="M556 3712 c21 -19 1630 -1249 1644 -1257 12 -7 12 -5 -1 11 -9 10
-215 288 -459 617 -244 330 -448 600 -454 602 -13 4 -642 35 -700 35 -23 0
-36 -4 -30 -8z"/>
<path d="M3047 3653 c-4 -6 -123 -338 -266 -739 -143 -401 -327 -920 -410
-1153 -83 -233 -150 -426 -147 -428 3 -3 1854 733 1864 742 1 1 -199 310 -446
686 -246 376 -480 733 -519 793 -39 59 -73 104 -76 99z"/>
<path d="M393 3624 c3 -10 9 -98 12 -195 4 -97 11 -182 15 -189 6 -10 45 -10
186 0 284 19 279 -3 37 195 -283 232 -257 212 -250 189z"/>
<path d="M381 3043 c0 -21 3 -55 7 -76 l7 -38 57 68 c54 64 56 68 35 75 -12 3
-41 6 -64 7 l-43 1 1 -37z"/>
<path d="M817 2995 c9 -57 9 -57 68 -28 30 15 55 30 55 33 0 4 -29 11 -64 16
l-65 10 6 -31z"/>
<path d="M52 2962 c-12 -26 -18 -50 -14 -53 11 -10 154 -60 163 -57 11 4 -95
144 -114 151 -11 4 -21 -8 -35 -41z"/>
<path d="M1156 2709 c-53 -89 -95 -163 -94 -164 5 -4 779 -27 783 -24 2 2 -67
45 -153 94 -86 49 -219 127 -295 172 -75 46 -139 83 -141 83 -2 0 -47 -73
-100 -161z"/>
<path d="M114 2638 c-26 -35 -51 -68 -55 -73 -4 -6 19 -46 52 -89 l59 -79 0
151 c0 84 -2 152 -4 152 -3 0 -26 -28 -52 -62z"/>
<path d="M387 2366 c-15 -30 -27 -57 -27 -60 0 -2 24 -12 53 -22 28 -9 58 -19
64 -21 10 -4 10 4 -1 34 -15 42 -54 123 -60 123 -1 0 -15 -24 -29 -54z"/>
<path d="M741 2218 l-122 -133 123 -3 c68 -1 169 1 225 5 l102 8 -97 127 c-53
70 -100 127 -103 128 -4 0 -61 -60 -128 -132z"/>
<path d="M1298 1222 c-565 -400 -1026 -728 -1024 -729 1 -1 416 175 922 393
l920 396 111 334 c61 184 108 334 105 333 -4 0 -469 -328 -1034 -727z"/>
</g>
</svg>
